dataset
version=1
nRows=14
nColumns=39
inDegrees=no
endheader
time	sternoclavicular_r2	sternoclavicular_r3	unrotscap_r3	unrotscap_r2	acromioclavicular_r2	acromioclavicular_r3	acromioclavicular_r1	unrothum_r1	unrothum_r3	unrothum_r2	elv_angle	shoulder_elv	shoulder1_r2	shoulder_rot	elbow_flexion	pro_sup	deviation	flexion	cmc_abduction	cmc_flexion	mp_flexion	ip_flexion	mcp2_flexion	mcp2_abduction	pm2_flexion	md2_flexion	mcp3_flexion	mcp3_abduction	pm3_flexion	md3_flexion	mcp4_flexion	mcp4_abduction	pm4_flexion	md4_flexion	mcp5_flexion	mcp5_abduction	pm5_flexion	md5_flexion
3.580000	-0.038262	-0.337121	0.150148	0.242993	0.219617	0.127709	-0.109401	-0.033453	0.141869	0.257046	0.270962	0.027437	0.146525	0.146525	1.446843	1.289402	0.000000	0.000000	0.000000	0.000000	0.000000	0.000000	0.000000	0.000000	0.000000	0.000000	0.000000	0.000000	0.000000	0.000000	0.000000	0.000000	0.000000	0.000000	0.000000	0.000000	0.000000	0.000000
3.585000	-0.038280	-0.337141	0.150125	0.243130	0.219770	0.127640	-0.109393	-0.033380	0.141850	0.257191	0.271114	0.027437	0.146525	0.146525	1.445975	1.289451	0.000000	0.000000	0.000000	0.000000	0.000000	0.000000	0.000000	0.000000	0.000000	0.000000	0.000000	0.000000	0.000000	0.000000	0.000000	0.000000	0.000000	0.000000	0.000000	0.000000	0.000000	0.000000
3.590000	-0.038298	-0.337160	0.150100	0.243265	0.219922	0.127572	-0.109383	-0.033305	0.141829	0.257334	0.271264	0.027437	0.146525	0.146525	1.445111	1.289500	0.000000	0.000000	0.000000	0.000000	0.000000	0.000000	0.000000	0.000000	0.000000	0.000000	0.000000	0.000000	0.000000	0.000000	0.000000	0.000000	0.000000	0.000000	0.000000	0.000000	0.000000	0.000000
3.595000	-0.038315	-0.337178	0.150075	0.243398	0.220071	0.127503	-0.109372	-0.033230	0.141808	0.257474	0.271411	0.027437	0.146525	0.146525	1.444254	1.289549	0.000000	0.000000	0.000000	0.000000	0.000000	0.000000	0.000000	0.000000	0.000000	0.000000	0.000000	0.000000	0.000000	0.000000	0.000000	0.000000	0.000000	0.000000	0.000000	0.000000	0.000000	0.000000
3.600000	-0.038332	-0.337196	0.150048	0.243529	0.220218	0.127434	-0.109360	-0.033154	0.141784	0.257611	0.271556	0.027437	0.146525	0.146525	1.443405	1.289598	0.000000	0.000000	0.000000	0.000000	0.000000	0.000000	0.000000	0.000000	0.000000	0.000000	0.000000	0.000000	0.000000	0.000000	0.000000	0.000000	0.000000	0.000000	0.000000	0.000000	0.000000	0.000000
3.605000	-0.038348	-0.337213	0.150019	0.243656	0.220362	0.127365	-0.109347	-0.033078	0.141760	0.257746	0.271697	0.027437	0.146525	0.146525	1.442565	1.289646	0.000000	0.000000	0.000000	0.000000	0.000000	0.000000	0.000000	0.000000	0.000000	0.000000	0.000000	0.000000	0.000000	0.000000	0.000000	0.000000	0.000000	0.000000	0.000000	0.000000	0.000000	0.000000
3.610000	-0.038365	-0.337228	0.149990	0.243781	0.220503	0.127296	-0.109333	-0.033001	0.141735	0.257877	0.271836	0.027437	0.146525	0.146525	1.441736	1.289693	0.000000	0.000000	0.000000	0.000000	0.000000	0.000000	0.000000	0.000000	0.000000	0.000000	0.000000	0.000000	0.000000	0.000000	0.000000	0.000000	0.000000	0.000000	0.000000	0.000000	0.000000	0.000000
3.615000	-0.038380	-0.337243	0.149960	0.243903	0.220641	0.127227	-0.109317	-0.032923	0.141708	0.258006	0.271971	0.027437	0.146525	0.146525	1.440918	1.289740	0.000000	0.000000	0.000000	0.000000	0.000000	0.000000	0.000000	0.000000	0.000000	0.000000	0.000000	0.000000	0.000000	0.000000	0.000000	0.000000	0.000000	0.000000	0.000000	0.000000	0.000000	0.000000
3.620000	-0.038396	-0.337257	0.149929	0.244022	0.220776	0.127158	-0.109301	-0.032846	0.141681	0.258131	0.272103	0.027437	0.146525	0.146525	1.440113	1.289787	0.000000	0.000000	0.000000	0.000000	0.000000	0.000000	0.000000	0.000000	0.000000	0.000000	0.000000	0.000000	0.000000	0.000000	0.000000	0.000000	0.000000	0.000000	0.000000	0.000000	0.000000	0.000000
3.625000	-0.038411	-0.337270	0.149897	0.244137	0.220907	0.127089	-0.109284	-0.032768	0.141652	0.258252	0.272231	0.027437	0.146525	0.146525	1.439322	1.289832	0.000000	0.000000	0.000000	0.000000	0.000000	0.000000	0.000000	0.000000	0.000000	0.000000	0.000000	0.000000	0.000000	0.000000	0.000000	0.000000	0.000000	0.000000	0.000000	0.000000	0.000000	0.000000
3.630000	-0.038425	-0.337282	0.149864	0.244249	0.221035	0.127021	-0.109267	-0.032691	0.141622	0.258371	0.272355	0.027437	0.146525	0.146525	1.438547	1.289877	0.000000	0.000000	0.000000	0.000000	0.000000	0.000000	0.000000	0.000000	0.000000	0.000000	0.000000	0.000000	0.000000	0.000000	0.000000	0.000000	0.000000	0.000000	0.000000	0.000000	0.000000	0.000000
3.635000	-0.038439	-0.337293	0.149830	0.244357	0.221160	0.126953	-0.109248	-0.032614	0.141591	0.258485	0.272476	0.027437	0.146525	0.146525	1.437789	1.289920	0.000000	0.000000	0.000000	0.000000	0.000000	0.000000	0.000000	0.000000	0.000000	0.000000	0.000000	0.000000	0.000000	0.000000	0.000000	0.000000	0.000000	0.000000	0.000000	0.000000	0.000000	0.000000
3.640000	-0.038453	-0.337303	0.149796	0.244462	0.221280	0.126885	-0.109229	-0.032537	0.141559	0.258596	0.272592	0.027437	0.146525	0.146525	1.437049	1.289963	0.000000	0.000000	0.000000	0.000000	0.000000	0.000000	0.000000	0.000000	0.000000	0.000000	0.000000	0.000000	0.000000	0.000000	0.000000	0.000000	0.000000	0.000000	0.000000	0.000000	0.000000	0.000000
3.645000	-0.038466	-0.337312	0.149761	0.244562	0.221396	0.126818	-0.109209	-0.032462	0.141527	0.258703	0.272704	0.027437	0.146525	0.146525	1.436329	1.290005	0.000000	0.000000	0.000000	0.000000	0.000000	0.000000	0.000000	0.000000	0.000000	0.000000	0.000000	0.000000	0.000000	0.000000	0.000000	0.000000	0.000000	0.000000	0.000000	0.000000	0.000000	0.000000
